# xmcd
#
# Track frame offsets:
#	150
#	12785
#	24555
#	49567
#	59375
#	75065
#	109656
#	121165
#	133978
#	145698
#	161892
#	188907
# Disc length: 2589 seconds
# Revision: 1
# Processed by: cddbd v1.5.2PL0 Copyright (c) Steve Scherf et al.
#
# Submitted via: libkcddb 0.31
#
DISCID=940a1b0c
DTITLE=David Bromberg - WFUV 90.7FM  Bronx, NY, February 12, 2007 [CD2]
DYEAR=2007
DGENRE=Blues
TTITLE0=Long Tall Mama
TTITLE1=Fiddle Tunes
TTITLE2=It Takes a Lot to Laugh, It Takes a Train to Cry
TTITLE3=Moonshiner
TTITLE4=East Virginia
TTITLE5=Interview
TTITLE6=Levee Camp Moan
TTITLE7=Big Road
TTITLE8=Buck Dancer's Choice
TTITLE9=When First Unto This Country
TTITLE10=Statesboro Blues
TTITLE11=Outro
EXTD=
EXTT0=
EXTT1=
EXTT2=
EXTT3=
EXTT4=
EXTT5=
EXTT6=
EXTT7=
EXTT8=
EXTT9=
EXTT10=
EXTT11=
PLAYORDER=
